<?xml version="1.0" standalone="no"?>
<!DOCTYPE svg PUBLIC "-//W3C//DTD SVG 20010904//EN"
 "http://www.w3.org/TR/2001/REC-SVG-20010904/DTD/svg10.dtd">
<svg version="1.0" xmlns="http://www.w3.org/2000/svg"
 width="800.000000pt" height="800.000000pt" viewBox="0 0 800.000000 800.000000"
 preserveAspectRatio="xMidYMid meet">
<metadata>
Created by potrace 1.11, written by Peter Selinger 2001-2013
</metadata>
<g transform="translate(0.000000,800.000000) scale(0.100000,-0.100000)"
fill="#000000" stroke="none">
<path d="M4110 7112 c-91 -14 -210 -111 -267 -217 -56 -108 -64 -150 -59 -340
2 -93 6 -179 9 -190 21 -84 33 -117 74 -202 75 -156 130 -230 290 -392 57 -57
103 -107 103 -111 0 -4 11 -20 24 -35 13 -15 30 -40 38 -54 7 -14 16 -28 19
-31 18 -16 25 -85 23 -245 -1 -183 -6 -251 -25 -334 -9 -39 -13 -97 -22 -271
-2 -29 -5 -34 -22 -32 -26 5 -59 29 -120 89 -27 26 -72 66 -100 88 -27 22 -52
42 -55 45 -3 3 -21 17 -40 30 -52 36 -304 222 -310 230 -4 5 -230 166 -293
210 -12 8 -32 25 -44 37 -12 13 -25 23 -29 23 -7 0 -191 136 -212 157 -7 7
-16 13 -20 13 -19 1 -222 198 -222 216 0 7 -3 14 -8 16 -13 6 -108 131 -150
199 -68 108 -75 134 -76 309 l-1 155 36 56 c81 125 129 149 294 150 105 1 122
-2 161 -27 55 -35 80 -77 101 -164 8 -34 9 -177 2 -205 -18 -65 -90 -118 -161
-118 -61 -1 -111 37 -151 113 -31 60 -26 75 24 76 23 0 31 -5 35 -23 4 -13 4
-27 1 -30 -12 -11 22 -59 42 -60 31 -3 51 36 53 100 1 46 -3 61 -25 91 -30 39
-64 50 -135 42 -44 -4 -78 -21 -110 -56 -14 -15 -18 -34 -17 -78 1 -56 22
-122 37 -122 5 0 8 -7 8 -16 0 -8 26 -41 58 -73 67 -67 118 -86 211 -78 96 8
181 70 232 169 16 32 18 54 15 165 -2 70 -6 138 -9 151 -14 53 -57 131 -93
168 -77 78 -104 87 -265 89 -181 3 -252 -19 -342 -109 -28 -28 -95 -127 -99
-147 -2 -8 -7 -17 -13 -21 -6 -4 -10 -78 -10 -185 0 -145 3 -188 18 -233 16
-49 82 -170 114 -210 6 -8 47 -62 90 -120 104 -141 197 -229 377 -359 83 -60
174 -126 201 -146 28 -20 104 -74 170 -119 106 -73 403 -283 430 -304 6 -5 24
-17 40 -27 17 -11 37 -25 45 -32 8 -7 47 -39 85 -71 39 -33 79 -69 89 -81 11
-11 25 -21 33 -21 7 0 13 -4 13 -9 0 -5 29 -19 65 -32 36 -12 65 -25 65 -29 0
-3 -12 -7 -27 -8 -31 -2 -72 -43 -165 -162 -32 -41 -63 -81 -69 -87 -5 -7 -7
-13 -3 -13 3 0 2 -6 -4 -12 -9 -13 -72 -163 -76 -183 -1 -5 -4 -14 -7 -20 -4
-5 -10 -23 -14 -40 -5 -16 -9 -32 -10 -35 -4 -13 -15 -78 -18 -105 -1 -16 -8
-40 -15 -52 -10 -19 -16 -21 -38 -13 -14 6 -27 10 -28 10 -7 0 3 -52 13 -63
15 -19 -71 -189 -122 -241 -23 -23 -62 -55 -87 -72 -72 -49 -71 -48 -66 -21 5
29 -13 41 -54 38 -34 -3 -48 16 -152 204 -21 39 -66 126 -99 195 -167 345
-202 412 -286 550 -25 41 -80 140 -121 220 -42 80 -88 165 -103 190 -15 25
-42 70 -60 100 -194 334 -439 628 -674 812 -113 89 -102 80 -175 133 -30 22
-56 43 -58 47 -2 5 -8 8 -14 8 -6 0 -26 11 -44 25 -18 14 -37 25 -43 25 -6 0
-11 3 -11 8 0 4 -21 19 -47 32 -27 14 -50 27 -53 30 -3 3 -43 24 -90 48 -193
96 -373 127 -477 82 -59 -25 -141 -106 -162 -160 -27 -72 -40 -211 -26 -285
31 -159 146 -303 425 -533 69 -57 130 -106 135 -110 55 -39 111 -83 133 -103
9 -9 46 -40 82 -70 36 -29 67 -55 70 -58 3 -4 28 -24 55 -46 28 -21 52 -42 55
-45 3 -3 50 -38 105 -78 55 -40 111 -80 124 -89 38 -28 95 -74 101 -81 13 -17
125 -105 220 -172 110 -78 114 -81 189 -144 43 -36 552 -545 671 -672 l55 -58
-40 24 c-63 37 -128 67 -238 111 -93 37 -264 119 -377 181 -25 14 -81 45 -125
68 -142 76 -219 122 -272 161 -29 22 -57 39 -63 39 -5 0 -10 4 -10 9 0 5 -8
12 -17 15 -10 3 -30 16 -45 28 -15 13 -46 36 -68 52 -22 17 -40 33 -40 38 0 4
-5 8 -11 8 -10 0 -72 46 -115 85 -7 5 -31 26 -55 45 -24 19 -109 100 -189 180
-216 217 -523 475 -735 617 -79 53 -329 183 -352 183 -4 0 -20 6 -35 14 -23
12 -86 36 -113 42 -106 26 -159 31 -225 20 -52 -8 -66 -18 -100 -66 -30 -42
-30 -44 -35 -151 -4 -96 6 -152 37 -219 20 -40 78 -138 100 -165 4 -5 34 -44
66 -85 53 -68 171 -189 247 -254 40 -35 522 -362 695 -472 208 -133 579 -326
850 -444 41 -18 98 -43 125 -55 139 -65 325 -140 368 -150 12 -2 112 -25 222
-49 110 -25 223 -46 252 -47 29 -1 50 -5 48 -9 -4 -7 -72 -27 -125 -36 -14 -3
-41 -9 -60 -14 -19 -5 -53 -11 -75 -15 -23 -3 -52 -8 -65 -10 -14 -3 -56 -8
-95 -11 -38 -3 -81 -8 -95 -10 -14 -3 -32 -6 -40 -6 -26 0 -328 -81 -365 -98
-17 -7 -45 -15 -90 -25 -44 -11 -121 -34 -245 -75 -189 -63 -218 -74 -232 -88
-7 -7 -18 -12 -25 -12 -7 0 -30 -9 -50 -20 -21 -11 -43 -20 -50 -20 -6 0 -13
-3 -15 -7 -2 -5 -19 -17 -38 -27 -254 -139 -442 -353 -524 -599 -24 -69 -32
-113 -38 -209 -1 -21 -4 -38 -5 -38 -32 0 -162 -46 -175 -61 -34 -40 -13 -90
37 -90 27 0 70 7 70 11 0 1 11 4 25 6 14 3 42 9 64 15 33 9 41 8 60 -10 26
-25 119 -71 196 -97 84 -28 335 -26 403 4 26 12 47 19 47 15 0 -3 6 -1 13 5 6
5 68 31 137 57 136 51 160 61 267 111 40 18 96 43 125 55 71 29 119 50 141 61
18 9 18 8 1 -19 -10 -15 -39 -56 -64 -90 -25 -34 -52 -71 -60 -84 -14 -21
-125 -167 -165 -219 -48 -61 -176 -179 -240 -221 -59 -39 -164 -93 -250 -130
-11 -4 -76 -27 -145 -50 -69 -23 -131 -47 -139 -54 -15 -14 -7 -50 12 -58 21
-8 408 128 506 176 139 70 228 142 336 272 22 26 49 62 60 79 10 17 22 33 25
36 28 26 205 289 223 331 8 19 12 44 11 57 -2 12 1 22 7 22 19 0 168 73 243
118 65 40 68 41 50 15 -30 -46 -118 -222 -159 -318 -57 -135 -143 -292 -182
-333 -7 -7 -13 -17 -13 -21 0 -5 -31 -40 -69 -78 -48 -48 -92 -81 -146 -108
-87 -44 -106 -67 -80 -95 21 -23 35 -20 125 25 109 55 149 83 211 146 93 96
170 227 253 429 85 207 180 378 256 459 25 27 109 78 140 86 3 0 14 6 26 12
29 17 169 72 196 77 13 3 41 10 62 15 25 6 46 6 57 0 29 -15 46 -10 53 14 4
18 22 26 110 50 57 16 110 30 118 31 17 4 67 23 95 37 22 12 47 -4 183 -115
25 -21 52 -43 60 -49 30 -24 424 -211 455 -217 6 -1 16 -6 23 -12 6 -6 12 -7
12 -3 0 4 7 2 15 -5 8 -7 15 -10 15 -7 0 4 19 0 41 -9 23 -8 51 -16 63 -19 54
-11 67 -14 74 -19 9 -5 50 -15 89 -21 12 -2 34 -6 50 -9 58 -12 121 -20 248
-32 39 -3 86 -8 105 -10 165 -18 565 -25 703 -13 32 3 57 1 57 -4 0 -14 -36
-72 -93 -150 -44 -61 -52 -67 -78 -63 -37 6 -44 -6 -24 -43 8 -17 15 -39 15
-51 0 -11 6 -21 13 -21 6 -1 17 -2 22 -3 6 0 42 -23 82 -50 66 -44 71 -50 61
-69 -18 -34 -209 -309 -245 -354 -39 -47 -51 -48 -165 -13 -55 17 -86 19 -140
11 -4 0 -20 -19 -34 -41 -33 -49 -42 -111 -20 -129 9 -8 16 -11 16 -7 0 3 21
-7 48 -23 50 -29 292 -114 330 -115 12 -1 27 -7 31 -15 7 -10 18 -12 47 -5 22
4 52 7 68 6 23 -2 38 6 64 34 45 48 47 104 5 141 -28 23 -144 83 -163 83 -8 0
27 53 76 113 8 9 14 20 14 23 0 8 44 69 53 72 4 2 7 8 7 13 0 8 56 93 76 115
6 7 17 26 24 43 7 17 16 28 21 25 16 -9 52 -15 131 -21 68 -4 82 -2 115 18 53
32 65 45 114 135 24 43 50 88 56 99 7 11 16 28 19 38 3 9 10 17 14 17 4 0 12
11 18 24 11 24 143 224 190 287 70 93 152 210 152 215 0 2 5 10 10 17 29 33
127 177 145 210 11 20 23 37 27 37 5 0 8 5 8 12 0 6 11 26 25 44 14 18 25 35
25 38 0 6 190 269 200 276 7 5 168 227 200 274 8 12 39 54 68 93 34 47 54 84
57 108 3 21 7 41 10 45 7 11 -112 70 -144 71 -14 0 -43 6 -64 12 l-37 12 17
31 c10 17 31 53 47 80 91 156 164 283 178 309 62 117 104 194 118 215 39 57
90 139 90 145 0 3 8 18 19 33 10 15 38 56 61 92 23 36 54 77 67 91 33 36 28
73 -9 77 -20 2 -28 -1 -28 -12 0 -9 -4 -16 -8 -16 -5 0 -24 -21 -42 -47 -19
-27 -37 -50 -40 -53 -3 -3 -19 -23 -36 -45 -16 -22 -35 -46 -41 -53 -7 -7 -13
-19 -13 -27 0 -7 -4 -15 -8 -17 -19 -8 -87 -119 -170 -278 -30 -58 -76 -141
-102 -185 -26 -44 -61 -107 -80 -140 -35 -64 -92 -155 -96 -155 -10 0 -74 43
-74 50 0 7 -19 12 -91 26 -41 8 -69 -14 -151 -121 -89 -116 -238 -332 -238
-344 0 -5 -9 -16 -20 -26 -11 -10 -20 -22 -20 -27 0 -5 -4 -14 -10 -21 -5 -7
-53 -70 -106 -142 -54 -71 -101 -131 -106 -133 -4 -2 -8 -10 -8 -17 0 -7 -3
-15 -8 -17 -6 -3 -24 -30 -118 -179 -18 -29 -31 -38 -66 -44 -45 -8 -56 -11
-60 -15 -2 -1 -11 -3 -20 -5 -9 -2 -40 -8 -69 -14 -28 -6 -54 -9 -57 -7 -2 3
-12 1 -21 -3 -9 -5 -34 -11 -56 -15 -44 -6 -64 -10 -175 -31 -81 -15 -145 -25
-194 -31 -17 -2 -58 -7 -91 -11 -75 -9 -341 -9 -460 0 -93 7 -107 8 -265 32
-52 8 -117 17 -145 20 -27 3 -68 8 -90 12 -22 3 -55 7 -72 9 -18 2 -59 8 -90
14 -32 6 -70 13 -85 15 -15 2 -45 9 -68 15 -22 6 -44 8 -49 6 -5 -3 -14 1 -20
8 -10 12 -9 14 5 12 9 -2 34 6 55 16 26 12 61 18 113 18 l74 0 27 43 c25 39
30 42 78 45 28 2 65 12 82 22 33 20 114 105 116 121 1 5 2 14 3 19 1 7 48 11
129 12 71 0 143 5 160 11 152 50 267 106 383 187 78 55 201 196 250 287 14 26
53 128 62 163 4 14 7 102 7 195 0 191 -10 244 -56 293 -16 17 -29 35 -29 40 0
4 18 24 40 42 47 39 94 114 96 151 0 14 4 30 7 36 3 5 1 28 -5 52 -8 32 -20
49 -49 68 -37 25 -43 25 -146 20 -98 -6 -129 -9 -158 -18 -5 -2 -51 13 -102
33 -99 40 -119 46 -203 54 -30 3 -84 18 -120 32 -88 37 -258 42 -347 11 -62
-21 -188 -35 -178 -19 3 5 8 51 11 102 3 51 7 107 10 123 2 17 6 50 9 75 2 25
8 56 11 70 4 14 8 133 11 266 l4 240 -42 83 c-23 46 -49 91 -58 100 -9 9 -27
32 -41 51 -13 19 -71 82 -128 140 -113 115 -170 193 -230 315 -72 145 -82 190
-83 391 -1 144 13 205 68 284 69 99 144 140 253 140 46 0 61 -5 90 -30 123
-103 150 -151 151 -268 0 -66 -4 -88 -25 -130 -23 -45 -30 -52 -68 -60 -35 -7
-51 -5 -83 11 -22 11 -43 26 -48 33 -4 7 -14 20 -22 28 -19 19 -35 61 -34 89
0 15 2 17 6 7 4 -8 17 -33 31 -54 l25 -40 37 44 c35 41 36 46 27 82 -6 25 -23
50 -46 69 -30 25 -44 29 -81 28 -41 -3 -48 -7 -77 -47 -32 -43 -32 -46 -19
-127 10 -67 98 -190 157 -220 44 -23 143 -19 196 7 25 12 49 30 54 39 5 10 15
24 23 32 29 29 53 128 51 212 -3 159 -35 222 -166 330 -80 67 -157 85 -279 67z
m-3098 -1079 c-6 -10 -23 -29 -39 -43 -19 -17 -22 -18 -10 -4 9 11 17 24 17
29 0 11 32 46 37 41 3 -2 0 -13 -5 -23z m1083 -593 c10 -11 16 -20 13 -20 -3
0 -13 9 -23 20 -10 11 -16 20 -13 20 3 0 13 -9 23 -20z m-1966 -405 l0 -20 -8
20 c-4 11 -11 34 -14 50 l-6 30 14 -30 c8 -16 14 -39 14 -50z m319 -417 c41
-49 9 -30 -48 29 -52 53 -53 54 -15 28 22 -15 50 -41 63 -57z m4511 -102 c9
-11 5 -13 -19 -12 -33 1 -40 12 -12 19 9 3 18 5 18 6 1 0 7 -5 13 -13z m-538
-16 c-41 -19 -61 -19 -61 0 0 9 20 13 75 18 27 2 26 0 -14 -18z m443 11 c4 -5
-3 -7 -14 -4 -23 6 -26 13 -6 13 8 0 17 -4 20 -9z m-274 -51 c0 -5 -5 -10 -11
-10 -6 0 -24 -10 -41 -21 -27 -20 -30 -20 -27 -4 3 14 30 30 77 44 1 1 2 -3 2
-9z m690 -21 c0 -5 -12 -3 -27 3 -44 19 -50 28 -10 16 21 -6 37 -15 37 -19z
m-950 7 c0 -3 -4 -8 -10 -11 -5 -3 -10 -1 -10 4 0 6 5 11 10 11 6 0 10 -2 10
-4z m980 -16 c0 -5 -4 -10 -10 -10 -5 0 -10 5 -10 10 0 6 5 10 10 10 6 0 10
-4 10 -10z m119 -27 c-1 -17 -3 -21 -6 -10 -2 9 -10 17 -16 17 -7 0 -6 4 3 10
20 13 20 13 19 -17z m-426 -29 c27 -11 55 -33 73 -58 36 -50 42 -65 49 -124 3
-26 8 -63 11 -82 11 -69 4 -150 -15 -188 -28 -54 -102 -127 -201 -198 -46 -33
-55 -35 -135 -38 -164 -5 -297 66 -301 162 -1 20 -4 48 -7 62 -36 167 -37 169
-59 146 -14 -13 -18 -13 -28 -1 -12 15 7 60 59 140 54 83 179 177 259 193 67
14 249 5 295 -14z m249 -152 c-3 -9 -11 2 -19 29 -18 61 -16 71 6 25 11 -22
16 -46 13 -54z m22 -152 c1 -14 -1 -34 -5 -45 -6 -15 -8 -9 -8 21 -1 23 -3 57
-6 75 l-5 34 10 -30 c6 -16 12 -41 14 -55z m-920 -79 c10 -15 13 -115 6 -141
-9 -27 -9 -26 -15 55 -1 22 -6 52 -10 68 -7 26 6 39 19 18z m-404 -241 c0 -5
-2 -10 -4 -10 -3 0 -8 5 -11 10 -3 6 -1 10 4 10 6 0 11 -4 11 -10z m1120 -78
c0 -9 -83 -72 -95 -72 -4 0 15 18 41 40 53 43 54 44 54 32z m449 -109 c-21
-50 -118 -187 -126 -179 -3 3 6 19 20 35 13 16 46 66 72 110 26 45 49 81 51
81 2 0 -6 -21 -17 -47z m-2126 -77 c4 -10 1 -13 -8 -9 -8 3 -12 9 -9 14 7 12
11 11 17 -5z m1011 -166 c4 -23 3 -31 -4 -24 -5 5 -13 25 -16 44 -4 23 -3 32
3 25 6 -5 13 -26 17 -45z m-754 -5 c0 -8 -7 -15 -15 -15 -26 0 -18 20 13 29 1
1 2 -6 2 -14z m260 -55 c0 -5 -4 -10 -10 -10 -5 0 -10 5 -10 10 0 6 5 10 10
10 6 0 10 -4 10 -10z m555 -20 c3 -6 -1 -7 -9 -4 -18 7 -21 14 -7 14 6 0 13
-4 16 -10z m90 -60 c6 -4 33 -15 61 -24 51 -17 105 -47 74 -42 -34 5 -137 48
-160 67 -20 15 -21 18 -5 13 11 -4 25 -10 30 -14z m-1333 -15 c-18 -8 -51 -19
-73 -25 -34 -9 -39 -14 -39 -40 0 -36 -6 -37 -31 -7 -23 28 -24 37 -1 38 9 0
46 11 82 24 73 25 113 32 62 10z m1287 -82 c30 -29 51 -53 47 -53 -16 0 -96
62 -115 89 -45 62 -22 50 68 -36z m-1749 -43 c0 -5 -7 -10 -15 -10 -8 0 -15 5
-15 10 0 6 7 10 15 10 8 0 15 -4 15 -10z m1839 -19 c8 -5 9 -11 3 -15 -5 -3
-15 1 -22 9 -14 16 -3 20 19 6z m-1089 -26 c11 -13 10 -14 -4 -9 -9 3 -16 10
-16 15 0 13 6 11 20 -6z m-1090 -5 c0 -5 -2 -10 -4 -10 -3 0 -8 5 -11 10 -3 6
-1 10 4 10 6 0 11 -4 11 -10z m2020 -11 c0 -5 -4 -9 -10 -9 -5 0 -10 7 -10 16
0 8 5 12 10 9 6 -3 10 -10 10 -16z m-1718 -61 c-7 -7 -18 -5 -32 5 l-22 15 29
14 c25 12 28 12 31 -5 2 -11 -1 -24 -6 -29z m-289 -19 c-7 -25 -10 -24 -15 5
-3 16 -1 23 7 19 7 -2 11 -13 8 -24z m-305 -13 c-3 -13 -7 -13 -28 -1 l-25 14
25 9 c26 10 34 3 28 -22z m2193 -54 c15 -6 16 -9 4 -26 -13 -17 -16 -17 -59
-1 -30 11 -43 22 -39 31 5 13 51 11 94 -4z m-2471 -6 c0 -11 -19 -15 -25 -6
-3 5 1 10 9 10 9 0 16 -2 16 -4z m1935 -66 c3 -5 -1 -10 -9 -10 -9 0 -16 5
-16 10 0 6 4 10 9 10 6 0 13 -4 16 -10z m-2205 -40 c0 -5 -7 -10 -16 -10 -8 0
-12 5 -9 10 3 6 10 10 16 10 5 0 9 -4 9 -10z m650 -129 c0 -12 -28 36 -34 59
-4 14 2 8 14 -14 11 -22 20 -42 20 -45z m1658 61 c20 -10 57 -24 82 -31 25 -7
56 -17 70 -21 14 -5 43 -12 65 -16 22 -4 45 -8 50 -10 6 -1 21 -5 35 -8 14 -3
36 -7 50 -11 26 -5 127 -23 170 -30 14 -2 54 -7 90 -10 36 -4 74 -9 85 -11 22
-4 73 -12 130 -19 22 -3 51 -7 65 -9 14 -3 48 -7 75 -11 28 -3 66 -8 85 -12
51 -9 425 -10 495 -1 33 4 85 10 115 13 30 4 71 10 90 15 19 5 51 11 70 14 19
3 60 10 90 16 30 6 66 13 80 15 30 5 242 59 288 73 17 6 32 7 32 3 0 -4 -13
-28 -30 -54 -16 -26 -30 -50 -30 -52 0 -2 -12 -21 -26 -42 -14 -21 -30 -47
-35 -58 -10 -22 -31 -57 -39 -65 -3 -3 -10 -16 -17 -30 -6 -14 -33 -57 -61
-95 -58 -82 -47 -79 -272 -79 -137 0 -236 7 -390 25 -47 6 -105 12 -130 14
-25 2 -63 6 -85 10 -22 3 -67 7 -100 10 -33 3 -73 7 -90 10 -16 2 -57 7 -90
11 -33 3 -71 11 -84 15 -13 5 -26 8 -28 5 -3 -2 -24 2 -46 11 -23 8 -55 17
-72 20 -55 9 -200 61 -296 106 -52 24 -128 59 -169 78 -110 50 -139 67 -234
139 -81 62 -84 65 -63 77 29 16 32 16 75 -5z m-354 0 c3 -5 -1 -9 -9 -9 -8 0
-15 4 -15 9 0 4 4 8 9 8 6 0 12 -4 15 -8z m-99 -22 c3 -5 2 -10 -4 -10 -5 0
-13 5 -16 10 -3 6 -2 10 4 10 5 0 13 -4 16 -10z m-1105 -212 c0 -6 6 -19 13
-28 6 -9 2 -5 -10 8 -23 23 -32 48 -13 37 6 -3 10 -11 10 -17z m469 3 c11 -7
7 -13 -18 -25 -40 -21 -59 -11 -29 14 27 22 28 23 47 11z m-1511 -76 c-3 -3
-9 2 -12 12 -6 14 -5 15 5 6 7 -7 10 -15 7 -18z m93 -193 c6 -15 5 -21 -1 -17
-6 3 -10 12 -10 20 0 7 -3 15 -7 17 -11 5 -73 130 -73 148 0 14 72 -119 91
-168z m953 103 c3 -8 1 -15 -3 -15 -5 0 -11 7 -15 15 -3 8 -1 15 3 15 5 0 11
-7 15 -15z m130 -20 c4 -11 -3 -19 -20 -25 -36 -14 -36 -13 -18 15 19 29 29
31 38 10z m-1520 -105 c-23 -85 -25 -175 -6 -225 15 -41 32 -55 102 -80 43
-15 102 -55 82 -55 -29 0 -181 64 -183 77 -1 5 -3 18 -4 31 -1 12 -10 31 -20
42 -18 20 -28 75 -17 95 3 5 7 21 9 36 3 29 43 142 48 137 2 -2 -3 -28 -11
-58z m154 25 c-3 -3 -9 2 -12 12 -6 14 -5 15 5 6 7 -7 10 -15 7 -18z m1049
-76 c-14 -8 -22 -8 -30 0 -8 8 -3 11 19 11 25 -1 27 -2 11 -11z m-304 -136
c-31 -16 -41 -10 -19 12 9 9 16 22 16 28 0 7 7 3 15 -7 13 -17 12 -20 -12 -33z
m-227 -52 c5 -5 20 -11 32 -13 21 -3 19 -4 -10 -13 -31 -10 -35 -9 -45 12 -12
24 3 33 23 14z m-102 -67 c3 -8 2 -12 -4 -9 -6 3 -10 10 -10 16 0 14 7 11 14
-7z m-224 -55 c0 -12 -37 -12 -44 0 -7 11 14 20 32 13 6 -2 12 -8 12 -13z m65
1 c3 -5 1 -10 -4 -10 -6 0 -11 5 -11 10 0 6 2 10 4 10 3 0 8 -4 11 -10z"/>
<path d="M4908 4160 c-60 -18 -93 -63 -91 -122 0 -10 1 -29 2 -43 1 -14 12
-37 25 -50 24 -23 42 -25 112 -10 27 6 53 45 58 87 5 43 -18 116 -41 134 -20
15 -27 16 -65 4z"/>
<path d="M7900 4440 c-24 -24 -22 -14 -26 -120 -2 -54 -11 -107 -24 -145 -24
-67 -36 -227 -21 -269 15 -38 54 -59 95 -52 28 5 38 15 54 49 19 38 20 57 17
192 -2 83 -6 164 -9 180 -11 54 -18 99 -21 134 -5 51 -32 64 -65 31z m15 -410
c-3 -81 -14 -106 -13 -33 0 49 7 103 13 103 2 0 2 -32 0 -70z"/>
</g>
</svg>
